<?xml version="1.0" encoding="UTF-8" standalone="no"?>
<svg
   xmlns:dc="http://purl.org/dc/elements/1.1/"
   xmlns:cc="http://creativecommons.org/ns#"
   xmlns:rdf="http://www.w3.org/1999/02/22-rdf-syntax-ns#"
   xmlns:svg="http://www.w3.org/2000/svg"
   xmlns="http://www.w3.org/2000/svg"
   xmlns:sodipodi="http://sodipodi.sourceforge.net/DTD/sodipodi-0.dtd"
   xmlns:inkscape="http://www.inkscape.org/namespaces/inkscape"
   height="60"
   width="52"
   version="1.0"
   viewBox="0 0 51.999998 59.999999"
   id="svg2"
   inkscape:version="0.91 r13725"
   sodipodi:docname="logos.svg">
  <sodipodi:namedview
     pagecolor="#9d9d9d"
     bordercolor="#666666"
     borderopacity="1"
     objecttolerance="10"
     gridtolerance="10"
     guidetolerance="10"
     inkscape:pageopacity="0"
     inkscape:pageshadow="2"
     inkscape:window-width="1105"
     inkscape:window-height="806"
     id="namedview18"
     showgrid="false"
     inkscape:zoom="0.91096978"
     inkscape:cx="49.639675"
     inkscape:cy="129.53229"
     inkscape:window-x="0"
     inkscape:window-y="0"
     inkscape:window-maximized="0"
     inkscape:current-layer="svg2" />
  <defs
     id="defs26" />
  <g
     transform="matrix(0.22881359,0,0,0.22881359,-54.418574,-87.518162)"
     id="layer1">
    <g
       style="stroke:#000000;stroke-opacity:1"
       id="g4216">
      <path
         id="path3161"
         style="fill:#ffffff;fill-opacity:1;stroke:#ffffff;stroke-opacity:1"
         d="m 441.29,560.71 c 0.02,49.72 -40.29,90.04 -90.02,90.04 -49.72,0 -90.03,-40.32 -90.02,-90.04 -0.01,-49.73 40.3,-90.05 90.02,-90.05 49.73,0 90.04,40.32 90.02,90.05 z"
         transform="matrix(0.083916,0,0,0.083916,343.2,457.18)"
         inkscape:connector-curvature="0" />
      <path
         id="path3163"
         style="fill:#ffffff;fill-opacity:1;stroke:#ffffff;stroke-opacity:1"
         d="m 441.29,560.71 c 0.02,49.72 -40.29,90.04 -90.02,90.04 -49.72,0 -90.03,-40.32 -90.02,-90.04 -0.01,-49.73 40.3,-90.05 90.02,-90.05 49.73,0 90.04,40.32 90.02,90.05 z"
         transform="matrix(0.083916,0,0,0.083916,301.17,457.18)"
         inkscape:connector-curvature="0" />
      <g
         style="stroke:#ffffff;stroke-opacity:1"
         id="g4228">
        <path
           transform="translate(239.74,384.07)"
           id="path3203"
           d="M 90.945405,205.02863 C 84.148035,220.22321 87.167654,225.78849 88.52,228.07 c 1.48,2.47 7.01,-17.38 9.83,-13.79 3.35,4.25 0.49,16.62 1.48,25.81 0.98,9.19 4.95,19.84 5.9,16.26 1.96,-7.42 4.42,-32.88 9.33,-25.81 4.92,7.07 9.62,22.82 11.8,16.97 1.85,-4.97 -5.9,-25.81 -2.46,-30.05 3.44,-4.24 8.85,13.08 10.81,8.13 1.74391,-4.3819 3.48782,-13.74774 -0.91447,-21.47959"
           style="fill:none;fill-rule:evenodd;stroke:#ffffff;stroke-width:4;stroke-opacity:1"
           inkscape:connector-curvature="0" />
        <path
           transform="translate(239.74,384.07)"
           d="M 108.88,46.344 C 78.746,46.954 57.943,57.997 45.25,75.094 21.186,72.506 1.188,98.719 1.188,98.719 c -5e-4,0 18.891,9.451 32.062,1.531 -2.399,8.71 -3.562,18.11 -3.562,27.91 0,45.17 56.125,81.84 81.842,81.84 26.72,0 81.85,-36.67 81.85,-81.84 0,-9.8 -1.17,-19.2 -3.57,-27.91 13.17,7.92 32.03,-1.531 32.03,-1.531 0,0 -19.97,-26.205 -44.03,-23.625 -13.06,-17.595 -34.71,-28.75 -66.28,-28.75 -0.89,0 -1.78,-0.018 -2.65,0 z"
           style="fill:none;stroke:#ffffff;stroke-width:4;stroke-linecap:round;stroke-linejoin:round;stroke-opacity:1"
           id="path3155"
           inkscape:connector-curvature="0" />
        <path
           transform="matrix(0.25175,0,0,0.25175,236.55,359.08)"
           d="m 441.29,560.71 c 0.02,49.72 -40.29,90.04 -90.02,90.04 -49.72,0 -90.03,-40.32 -90.02,-90.04 -0.01,-49.73 40.3,-90.05 90.02,-90.05 49.73,0 90.04,40.32 90.02,90.05 z"
           style="fill:none;stroke:#ffffff;stroke-width:15.88899994;stroke-linecap:round;stroke-linejoin:round;stroke-opacity:1"
           id="path3157"
           inkscape:connector-curvature="0" />
        <path
           transform="matrix(0.25175,0,0,0.25175,289.28,359.08)"
           d="m 441.29,560.71 c 0.02,49.72 -40.29,90.04 -90.02,90.04 -49.72,0 -90.03,-40.32 -90.02,-90.04 -0.01,-49.73 40.3,-90.05 90.02,-90.05 49.73,0 90.04,40.32 90.02,90.05 z"
           style="fill:none;stroke:#ffffff;stroke-width:15.88899994;stroke-linecap:round;stroke-linejoin:round;stroke-opacity:1"
           id="path3159"
           inkscape:connector-curvature="0" />
        <path
           transform="translate(239.74,384.07)"
           id="path4214"
           d="m 165.75344,62.781975 c 16.73712,-0.508687 33.58476,-2.918583 38.76609,-12.752678 7.13438,-13.5375 -8.7753,-48.2739015 -14.08789,-48.0312501 l 0,0 c -0.35417,0.016177 -0.66211,0.1875 -0.91211,0.53125 -4,5.5 5.5,29.0000001 -6,37.5000001 -11.1,8.2 -49.79976,-38.488672 -66.00976,5.111328 -0.1552,0.47565 -0.22914,0.96105 -0.22854,1.453115"
           style="fill:none;fill-rule:evenodd;stroke:#ffffff;stroke-width:4;stroke-opacity:1"
           inkscape:connector-curvature="0" />
        <path
           transform="translate(239.74,384.07)"
           id="path4210"
           d="m 105.32812,46.570242 c -0.002,-0.484021 -0.0758,-0.96154 -0.22851,-1.429617 -16.210001,-43.6 -54.909766,3.088672 -66.009766,-5.111328 -11.5,-8.5 -2,-32.0000001 -6,-37.5000001 -0.25,-0.34375 -0.555984,-0.5150733 -0.910156,-0.53125 C 26.867102,1.7553955 10.955469,36.491797 18.089844,50.029297 23.318739,59.95367 40.429231,62.316908 57.313565,62.795508"
           style="fill:none;fill-rule:evenodd;stroke:#ffffff;stroke-width:4;stroke-opacity:1"
           inkscape:connector-curvature="0" />
      </g>
      <path
         id="path2398"
         style="fill:#ffffff;fill-opacity:1;stroke:#ffffff;stroke-opacity:1"
         d="m 367.87,564.87 c -2.29,3.97 -6.5,5.84 -9.4,4.16 -2.89,-1.67 -3.38,-6.25 -1.09,-10.22 2.29,-3.97 6.5,-5.84 9.4,-4.16 2.89,1.67 3.38,6.24 1.09,10.22 z"
         inkscape:connector-curvature="0" />
      <path
         id="path2412"
         style="fill:#ffffff;fill-opacity:1;stroke:#ffffff;stroke-opacity:1"
         d="m 335.13,564.87 c 2.29,3.97 6.5,5.84 9.4,4.16 2.89,-1.67 3.38,-6.25 1.09,-10.22 -2.29,-3.97 -6.5,-5.84 -9.4,-4.16 -2.89,1.67 -3.38,6.24 -1.09,10.22 z"
         inkscape:connector-curvature="0" />
    </g>
  </g>
  <metadata
     id="metadata22">
    <rdf:RDF>
      <cc:Work>
        <dc:format>image/svg+xml</dc:format>
        <dc:type
           rdf:resource="http://purl.org/dc/dcmitype/StillImage" />
        <cc:license
           rdf:resource="http://creativecommons.org/publicdomain/zero/1.0/" />
        <dc:publisher>
          <cc:Agent
             rdf:about="http://openclipart.org/">
            <dc:title>Openclipart</dc:title>
          </cc:Agent>
        </dc:publisher>
        <dc:title></dc:title>
        <dc:date>2008-07-07T09:31:00</dc:date>
        <dc:description />
        <dc:source>https://openclipart.org/detail/17624/cartoon-gnu-by-lemmling</dc:source>
        <dc:creator>
          <cc:Agent>
            <dc:title>lemmling</dc:title>
          </cc:Agent>
        </dc:creator>
        <dc:subject>
          <rdf:Bag>
            <rdf:li>animal</rdf:li>
            <rdf:li>cartoon</rdf:li>
            <rdf:li>colour</rdf:li>
            <rdf:li>funny</rdf:li>
            <rdf:li>gnu</rdf:li>
            <rdf:li>how i did it</rdf:li>
            <rdf:li>mammal</rdf:li>
            <rdf:li>wildebeest</rdf:li>
          </rdf:Bag>
        </dc:subject>
      </cc:Work>
      <cc:License
         rdf:about="http://creativecommons.org/publicdomain/zero/1.0/">
        <cc:permits
           rdf:resource="http://creativecommons.org/ns#Reproduction" />
        <cc:permits
           rdf:resource="http://creativecommons.org/ns#Distribution" />
        <cc:permits
           rdf:resource="http://creativecommons.org/ns#DerivativeWorks" />
      </cc:License>
    </rdf:RDF>
  </metadata>
</svg>
