<?xml version="1.0" encoding="UTF-8" standalone="no"?>
<!-- Generator: Adobe Illustrator 17.0.1, SVG Export Plug-In . SVG Version: 6.00 Build 0)  -->

<svg
   xmlns:dc="http://purl.org/dc/elements/1.1/"
   xmlns:cc="http://creativecommons.org/ns#"
   xmlns:rdf="http://www.w3.org/1999/02/22-rdf-syntax-ns#"
   xmlns:svg="http://www.w3.org/2000/svg"
   xmlns="http://www.w3.org/2000/svg"
   xmlns:sodipodi="http://sodipodi.sourceforge.net/DTD/sodipodi-0.dtd"
   xmlns:inkscape="http://www.inkscape.org/namespaces/inkscape"
   version="1.1"
   id="Layer_1"
   x="0px"
   y="0px"
   width="185px"
   height="188px"
   viewBox="0 0 185 188"
   enable-background="new 0 0 185 188"
   xml:space="preserve"
   inkscape:version="0.91 r13725"
   sodipodi:docname="logos.svg"><metadata
     id="metadata235"><rdf:RDF><cc:Work
         rdf:about=""><dc:format>image/svg+xml</dc:format><dc:type
           rdf:resource="http://purl.org/dc/dcmitype/StillImage" /><dc:title /></cc:Work></rdf:RDF></metadata><defs
     id="defs233"><radialGradient
       gradientUnits="userSpaceOnUse"
       gradientTransform="matrix(0.498,0,0,0.498,172.2891,79.7388)"
       r="20.1137"
       cy="192.9653"
       cx="-310.265"
       id="SVGID_9_"><stop
         id="stop204"
         style="stop-color:#FFCF4F"
         offset="0" /><stop
         id="stop206"
         style="stop-color:#F4C236"
         offset="1" /></radialGradient><radialGradient
       gradientUnits="userSpaceOnUse"
       gradientTransform="matrix(0.498,0,0,0.498,172.2891,79.7388)"
       r="27.6582"
       cy="182.7508"
       cx="-322.3167"
       id="SVGID_10_"><stop
         id="stop211"
         style="stop-color:#08A960"
         offset="0" /><stop
         id="stop213"
         style="stop-color:#07914B"
         offset="1" /></radialGradient><radialGradient
       gradientUnits="userSpaceOnUse"
       gradientTransform="matrix(0.498,0,0,0.498,172.2891,79.7388)"
       r="40.54"
       cy="143.0691"
       cx="-312.8651"
       id="SVGID_11_"><stop
         id="stop218"
         style="stop-color:#567FC0"
         offset="0" /><stop
         id="stop220"
         style="stop-color:#557FC0"
         offset="1" /></radialGradient><radialGradient
       gradientUnits="userSpaceOnUse"
       gradientTransform="matrix(0.498,0,0,0.498,172.2891,79.7388)"
       r="33.0584"
       cy="133.1039"
       cx="-300.8011"
       id="SVGID_12_"><stop
         id="stop225"
         style="stop-color:#E14C40"
         offset="0" /><stop
         id="stop227"
         style="stop-color:#CD392D"
         offset="1" /></radialGradient><radialGradient
       gradientUnits="userSpaceOnUse"
       gradientTransform="matrix(0.498,0,0,0.498,172.2891,79.7388)"
       r="20.1137"
       cy="66.4552"
       cx="-310.583"
       id="SVGID_5_"><stop
         id="stop128"
         style="stop-color:#CCCCCC"
         offset="0" /><stop
         id="stop130"
         style="stop-color:#C0C0C0"
         offset="1" /></radialGradient><radialGradient
       gradientUnits="userSpaceOnUse"
       gradientTransform="matrix(0.498,0,0,0.498,172.2891,79.7388)"
       r="27.6582"
       cy="56.2407"
       cx="-322.6347"
       id="SVGID_6_"><stop
         id="stop135"
         style="stop-color:#A0A0A0"
         offset="0" /><stop
         id="stop137"
         style="stop-color:#7B7B7B"
         offset="1" /></radialGradient><radialGradient
       gradientUnits="userSpaceOnUse"
       gradientTransform="matrix(0.498,0,0,0.498,172.2891,79.7388)"
       r="40.54"
       cy="16.559"
       cx="-313.1831"
       id="SVGID_7_"><stop
         id="stop142"
         style="stop-color:#848484"
         offset="0" /><stop
         id="stop144"
         style="stop-color:#838383"
         offset="1" /></radialGradient><radialGradient
       gradientUnits="userSpaceOnUse"
       gradientTransform="matrix(0.498,0,0,0.498,172.2891,79.7388)"
       r="33.0584"
       cy="6.5938"
       cx="-301.1191"
       id="SVGID_8_"><stop
         id="stop149"
         style="stop-color:#626262"
         offset="0" /><stop
         id="stop151"
         style="stop-color:#474747"
         offset="1" /></radialGradient><radialGradient
       gradientUnits="userSpaceOnUse"
       gradientTransform="matrix(0.498,0,0,0.498,172.2891,79.7388)"
       r="20.1137"
       cy="-60.055"
       cx="-310.583"
       id="SVGID_1_"><stop
         id="stop52"
         style="stop-color:#FFCF4F"
         offset="0" /><stop
         id="stop54"
         style="stop-color:#F4C236"
         offset="1" /></radialGradient><radialGradient
       gradientUnits="userSpaceOnUse"
       gradientTransform="matrix(0.498,0,0,0.498,172.2891,79.7388)"
       r="27.6582"
       cy="-70.2695"
       cx="-322.6347"
       id="SVGID_2_"><stop
         id="stop59"
         style="stop-color:#08A960"
         offset="0" /><stop
         id="stop61"
         style="stop-color:#07914B"
         offset="1" /></radialGradient><radialGradient
       gradientUnits="userSpaceOnUse"
       gradientTransform="matrix(0.498,0,0,0.498,172.2891,79.7388)"
       r="40.54"
       cy="-109.9511"
       cx="-313.1831"
       id="SVGID_3_"><stop
         id="stop66"
         style="stop-color:#567FC0"
         offset="0" /><stop
         id="stop68"
         style="stop-color:#557FC0"
         offset="1" /></radialGradient><radialGradient
       gradientUnits="userSpaceOnUse"
       gradientTransform="matrix(0.498,0,0,0.498,172.2891,79.7388)"
       r="33.0584"
       cy="-119.9164"
       cx="-301.1191"
       id="SVGID_4_"><stop
         id="stop73"
         style="stop-color:#E14C40"
         offset="0" /><stop
         id="stop75"
         style="stop-color:#CD392D"
         offset="1" /></radialGradient></defs><sodipodi:namedview
     pagecolor="#ffffff"
     bordercolor="#666666"
     borderopacity="1"
     objecttolerance="10"
     gridtolerance="10"
     guidetolerance="10"
     inkscape:pageopacity="0"
     inkscape:pageshadow="2"
     inkscape:window-width="1166"
     inkscape:window-height="728"
     id="namedview231"
     showgrid="false"
     inkscape:zoom="1.7752894"
     inkscape:cx="-10.478207"
     inkscape:cy="62.494069"
     inkscape:window-x="0"
     inkscape:window-y="0"
     inkscape:window-maximized="0"
     inkscape:current-layer="Layer_1" /><g
     id="layer1"
     transform="matrix(0.1861841,0,0,0.1861841,-42.766575,-64.555951)"
     style="stroke-width:10.74205585;stroke-miterlimit:4;stroke-dasharray:none"><g
       id="g4216"
       style="stroke:#000000;stroke-width:10.74205585;stroke-miterlimit:4;stroke-dasharray:none;stroke-opacity:1"><path
         inkscape:connector-curvature="0"
         transform="matrix(0.083916,0,0,0.083916,343.2,457.18)"
         d="m 441.29,560.71 c 0.02,49.72 -40.29,90.04 -90.02,90.04 -49.72,0 -90.03,-40.32 -90.02,-90.04 -0.01,-49.73 40.3,-90.05 90.02,-90.05 49.73,0 90.04,40.32 90.02,90.05 z"
         style="fill:#000000;fill-opacity:1;stroke:#000000;stroke-width:128.00962685;stroke-miterlimit:4;stroke-dasharray:none;stroke-opacity:1"
         id="path3161" /><path
         inkscape:connector-curvature="0"
         transform="matrix(0.083916,0,0,0.083916,301.17,457.18)"
         d="m 441.29,560.71 c 0.02,49.72 -40.29,90.04 -90.02,90.04 -49.72,0 -90.03,-40.32 -90.02,-90.04 -0.01,-49.73 40.3,-90.05 90.02,-90.05 49.73,0 90.04,40.32 90.02,90.05 z"
         style="fill:#000000;fill-opacity:1;stroke:#000000;stroke-width:128.00962685;stroke-miterlimit:4;stroke-dasharray:none;stroke-opacity:1"
         id="path3163" /><g
         id="g4228"
         style="stroke:#000000;stroke-width:10.74205585;stroke-miterlimit:4;stroke-dasharray:none;stroke-opacity:1"><path
           inkscape:connector-curvature="0"
           style="fill:none;fill-rule:evenodd;stroke:#000000;stroke-width:10.74205585;stroke-miterlimit:4;stroke-dasharray:none;stroke-opacity:1"
           d="M 90.945405,205.02863 C 84.148035,220.22321 87.167654,225.78849 88.52,228.07 c 1.48,2.47 7.01,-17.38 9.83,-13.79 3.35,4.25 0.49,16.62 1.48,25.81 0.98,9.19 4.95,19.84 5.9,16.26 1.96,-7.42 4.42,-32.88 9.33,-25.81 4.92,7.07 9.62,22.82 11.8,16.97 1.85,-4.97 -5.9,-25.81 -2.46,-30.05 3.44,-4.24 8.85,13.08 10.81,8.13 1.74391,-4.3819 3.48782,-13.74774 -0.91447,-21.47959"
           id="path3203"
           transform="translate(239.74,384.07)" /><path
           inkscape:connector-curvature="0"
           id="path3155"
           style="fill:none;stroke:#000000;stroke-width:10.74205585;stroke-linecap:round;stroke-linejoin:round;stroke-miterlimit:4;stroke-dasharray:none;stroke-opacity:1"
           d="M 108.88,46.344 C 78.746,46.954 57.943,57.997 45.25,75.094 21.186,72.506 1.188,98.719 1.188,98.719 c -5e-4,0 18.891,9.451 32.062,1.531 -2.399,8.71 -3.562,18.11 -3.562,27.91 0,45.17 56.125,81.84 81.842,81.84 26.72,0 81.85,-36.67 81.85,-81.84 0,-9.8 -1.17,-19.2 -3.57,-27.91 13.17,7.92 32.03,-1.531 32.03,-1.531 0,0 -19.97,-26.205 -44.03,-23.625 -13.06,-17.595 -34.71,-28.75 -66.28,-28.75 -0.89,0 -1.78,-0.018 -2.65,0 z"
           transform="translate(239.74,384.07)" /><path
           inkscape:connector-curvature="0"
           id="path3157"
           style="fill:none;stroke:#000000;stroke-width:42.66953663;stroke-linecap:round;stroke-linejoin:round;stroke-miterlimit:4;stroke-dasharray:none;stroke-opacity:1"
           d="m 441.29,560.71 c 0.02,49.72 -40.29,90.04 -90.02,90.04 -49.72,0 -90.03,-40.32 -90.02,-90.04 -0.01,-49.73 40.3,-90.05 90.02,-90.05 49.73,0 90.04,40.32 90.02,90.05 z"
           transform="matrix(0.25175,0,0,0.25175,236.55,359.08)" /><path
           inkscape:connector-curvature="0"
           id="path3159"
           style="fill:none;stroke:#000000;stroke-width:42.66953663;stroke-linecap:round;stroke-linejoin:round;stroke-miterlimit:4;stroke-dasharray:none;stroke-opacity:1"
           d="m 441.29,560.71 c 0.02,49.72 -40.29,90.04 -90.02,90.04 -49.72,0 -90.03,-40.32 -90.02,-90.04 -0.01,-49.73 40.3,-90.05 90.02,-90.05 49.73,0 90.04,40.32 90.02,90.05 z"
           transform="matrix(0.25175,0,0,0.25175,289.28,359.08)" /><path
           inkscape:connector-curvature="0"
           style="fill:none;fill-rule:evenodd;stroke:#000000;stroke-width:10.74205585;stroke-miterlimit:4;stroke-dasharray:none;stroke-opacity:1"
           d="m 165.75344,62.781975 c 16.73712,-0.508687 33.58476,-2.918583 38.76609,-12.752678 7.13438,-13.5375 -8.7753,-48.2739015 -14.08789,-48.0312501 l 0,0 c -0.35417,0.016177 -0.66211,0.1875 -0.91211,0.53125 -4,5.5 5.5,29.0000001 -6,37.5000001 -11.1,8.2 -49.79976,-38.488672 -66.00976,5.111328 -0.1552,0.47565 -0.22914,0.96105 -0.22854,1.453115"
           id="path4214"
           transform="translate(239.74,384.07)" /><path
           inkscape:connector-curvature="0"
           style="fill:none;fill-rule:evenodd;stroke:#000000;stroke-width:10.74205585;stroke-miterlimit:4;stroke-dasharray:none;stroke-opacity:1"
           d="m 105.32812,46.570242 c -0.002,-0.484021 -0.0758,-0.96154 -0.22851,-1.429617 -16.210001,-43.6 -54.909766,3.088672 -66.009766,-5.111328 -11.5,-8.5 -2,-32.0000001 -6,-37.5000001 -0.25,-0.34375 -0.555984,-0.5150733 -0.910156,-0.53125 C 26.867102,1.7553955 10.955469,36.491797 18.089844,50.029297 23.318739,59.95367 40.429231,62.316908 57.313565,62.795508"
           id="path4210"
           transform="translate(239.74,384.07)" /></g><path
         inkscape:connector-curvature="0"
         d="m 367.87,564.87 c -2.29,3.97 -6.5,5.84 -9.4,4.16 -2.89,-1.67 -3.38,-6.25 -1.09,-10.22 2.29,-3.97 6.5,-5.84 9.4,-4.16 2.89,1.67 3.38,6.24 1.09,10.22 z"
         style="fill:#000000;fill-opacity:1;stroke:#000000;stroke-width:10.74205585;stroke-miterlimit:4;stroke-dasharray:none;stroke-opacity:1"
         id="path2398" /><path
         inkscape:connector-curvature="0"
         d="m 335.13,564.87 c 2.29,3.97 6.5,5.84 9.4,4.16 2.89,-1.67 3.38,-6.25 1.09,-10.22 -2.29,-3.97 -6.5,-5.84 -9.4,-4.16 -2.89,1.67 -3.38,6.24 -1.09,10.22 z"
         style="fill:#000000;fill-opacity:1;stroke:#000000;stroke-width:10.74205585;stroke-miterlimit:4;stroke-dasharray:none;stroke-opacity:1"
         id="path2412" /></g></g><g
     transform="matrix(0.1861841,0,0,0.1861841,-43.563185,-0.82713744)"
     id="g4532"
     style="stroke-width:10.74205585;stroke-miterlimit:4;stroke-dasharray:none;stroke:#4e4e4e;stroke-opacity:1"
     inkscape:export-xdpi="204.32001"
     inkscape:export-ydpi="204.32001"><g
       style="stroke:#4e4e4e;stroke-width:10.74205585;stroke-miterlimit:4;stroke-dasharray:none;stroke-opacity:1"
       id="g4534"><path
         id="path4536"
         style="fill:#727272;fill-opacity:1;stroke:#4e4e4e;stroke-width:128.00962685;stroke-miterlimit:4;stroke-dasharray:none;stroke-opacity:1"
         d="m 441.29,560.71 c 0.02,49.72 -40.29,90.04 -90.02,90.04 -49.72,0 -90.03,-40.32 -90.02,-90.04 -0.01,-49.73 40.3,-90.05 90.02,-90.05 49.73,0 90.04,40.32 90.02,90.05 z"
         transform="matrix(0.083916,0,0,0.083916,343.2,457.18)"
         inkscape:connector-curvature="0" /><path
         id="path4538"
         style="fill:#727272;fill-opacity:1;stroke:#4e4e4e;stroke-width:128.00962685;stroke-miterlimit:4;stroke-dasharray:none;stroke-opacity:1"
         d="m 441.29,560.71 c 0.02,49.72 -40.29,90.04 -90.02,90.04 -49.72,0 -90.03,-40.32 -90.02,-90.04 -0.01,-49.73 40.3,-90.05 90.02,-90.05 49.73,0 90.04,40.32 90.02,90.05 z"
         transform="matrix(0.083916,0,0,0.083916,301.17,457.18)"
         inkscape:connector-curvature="0" /><g
         style="stroke:#4e4e4e;stroke-width:10.74205585;stroke-miterlimit:4;stroke-dasharray:none;stroke-opacity:1"
         id="g4540"><path
           transform="translate(239.74,384.07)"
           id="path4542"
           d="M 90.945405,205.02863 C 84.148035,220.22321 87.167654,225.78849 88.52,228.07 c 1.48,2.47 7.01,-17.38 9.83,-13.79 3.35,4.25 0.49,16.62 1.48,25.81 0.98,9.19 4.95,19.84 5.9,16.26 1.96,-7.42 4.42,-32.88 9.33,-25.81 4.92,7.07 9.62,22.82 11.8,16.97 1.85,-4.97 -5.9,-25.81 -2.46,-30.05 3.44,-4.24 8.85,13.08 10.81,8.13 1.74391,-4.3819 3.48782,-13.74774 -0.91447,-21.47959"
           style="fill:none;fill-rule:evenodd;stroke:#4e4e4e;stroke-width:10.74205585;stroke-miterlimit:4;stroke-dasharray:none;stroke-opacity:1"
           inkscape:connector-curvature="0" /><path
           transform="translate(239.74,384.07)"
           d="M 108.88,46.344 C 78.746,46.954 57.943,57.997 45.25,75.094 21.186,72.506 1.188,98.719 1.188,98.719 c -5e-4,0 18.891,9.451 32.062,1.531 -2.399,8.71 -3.562,18.11 -3.562,27.91 0,45.17 56.125,81.84 81.842,81.84 26.72,0 81.85,-36.67 81.85,-81.84 0,-9.8 -1.17,-19.2 -3.57,-27.91 13.17,7.92 32.03,-1.531 32.03,-1.531 0,0 -19.97,-26.205 -44.03,-23.625 -13.06,-17.595 -34.71,-28.75 -66.28,-28.75 -0.89,0 -1.78,-0.018 -2.65,0 z"
           style="fill:none;stroke:#4e4e4e;stroke-width:10.74205585;stroke-linecap:round;stroke-linejoin:round;stroke-miterlimit:4;stroke-dasharray:none;stroke-opacity:1"
           id="path4544"
           inkscape:connector-curvature="0" /><path
           transform="matrix(0.25175,0,0,0.25175,236.55,359.08)"
           d="m 441.29,560.71 c 0.02,49.72 -40.29,90.04 -90.02,90.04 -49.72,0 -90.03,-40.32 -90.02,-90.04 -0.01,-49.73 40.3,-90.05 90.02,-90.05 49.73,0 90.04,40.32 90.02,90.05 z"
           style="fill:none;stroke:#4e4e4e;stroke-width:42.66953663;stroke-linecap:round;stroke-linejoin:round;stroke-miterlimit:4;stroke-dasharray:none;stroke-opacity:1"
           id="path4546"
           inkscape:connector-curvature="0" /><path
           transform="matrix(0.25175,0,0,0.25175,289.28,359.08)"
           d="m 441.29,560.71 c 0.02,49.72 -40.29,90.04 -90.02,90.04 -49.72,0 -90.03,-40.32 -90.02,-90.04 -0.01,-49.73 40.3,-90.05 90.02,-90.05 49.73,0 90.04,40.32 90.02,90.05 z"
           style="fill:none;stroke:#4e4e4e;stroke-width:42.66953663;stroke-linecap:round;stroke-linejoin:round;stroke-miterlimit:4;stroke-dasharray:none;stroke-opacity:1"
           id="path4548"
           inkscape:connector-curvature="0" /><path
           transform="translate(239.74,384.07)"
           id="path4550"
           d="m 165.75344,62.781975 c 16.73712,-0.508687 33.58476,-2.918583 38.76609,-12.752678 7.13438,-13.5375 -8.7753,-48.2739015 -14.08789,-48.0312501 l 0,0 c -0.35417,0.016177 -0.66211,0.1875 -0.91211,0.53125 -4,5.5 5.5,29.0000001 -6,37.5000001 -11.1,8.2 -49.79976,-38.488672 -66.00976,5.111328 -0.1552,0.47565 -0.22914,0.96105 -0.22854,1.453115"
           style="fill:none;fill-rule:evenodd;stroke:#4e4e4e;stroke-width:10.74205585;stroke-miterlimit:4;stroke-dasharray:none;stroke-opacity:1"
           inkscape:connector-curvature="0" /><path
           transform="translate(239.74,384.07)"
           id="path4552"
           d="m 105.32812,46.570242 c -0.002,-0.484021 -0.0758,-0.96154 -0.22851,-1.429617 -16.210001,-43.6 -54.909766,3.088672 -66.009766,-5.111328 -11.5,-8.5 -2,-32.0000001 -6,-37.5000001 -0.25,-0.34375 -0.555984,-0.5150733 -0.910156,-0.53125 C 26.867102,1.7553955 10.955469,36.491797 18.089844,50.029297 23.318739,59.95367 40.429231,62.316908 57.313565,62.795508"
           style="fill:none;fill-rule:evenodd;stroke:#4e4e4e;stroke-width:10.74205585;stroke-miterlimit:4;stroke-dasharray:none;stroke-opacity:1"
           inkscape:connector-curvature="0" /></g><path
         id="path4554"
         style="fill:#727272;fill-opacity:1;stroke:#4e4e4e;stroke-width:10.74205585;stroke-miterlimit:4;stroke-dasharray:none;stroke-opacity:1"
         d="m 367.87,564.87 c -2.29,3.97 -6.5,5.84 -9.4,4.16 -2.89,-1.67 -3.38,-6.25 -1.09,-10.22 2.29,-3.97 6.5,-5.84 9.4,-4.16 2.89,1.67 3.38,6.24 1.09,10.22 z"
         inkscape:connector-curvature="0" /><path
         id="path4556"
         style="fill:#727272;fill-opacity:1;stroke:#4e4e4e;stroke-width:10.74205585;stroke-miterlimit:4;stroke-dasharray:none;stroke-opacity:1"
         d="m 335.13,564.87 c 2.29,3.97 6.5,5.84 9.4,4.16 2.89,-1.67 3.38,-6.25 1.09,-10.22 -2.29,-3.97 -6.5,-5.84 -9.4,-4.16 -2.89,1.67 -3.38,6.24 -1.09,10.22 z"
         inkscape:connector-curvature="0" /></g></g><g
     id="g4701"
     transform="matrix(0.1861841,0,0,0.1861841,-43.281541,62.261169)"
     style="stroke-width:10.74205585;stroke-miterlimit:4;stroke-dasharray:none;stroke:#e6e6e6;stroke-opacity:1;fill:none"><g
       id="g4703"
       style="stroke:#e6e6e6;stroke-width:10.74205585;stroke-miterlimit:4;stroke-dasharray:none;stroke-opacity:1;fill:none"><path
         inkscape:connector-curvature="0"
         transform="matrix(0.083916,0,0,0.083916,343.2,457.18)"
         d="m 441.29,560.71 c 0.02,49.72 -40.29,90.04 -90.02,90.04 -49.72,0 -90.03,-40.32 -90.02,-90.04 -0.01,-49.73 40.3,-90.05 90.02,-90.05 49.73,0 90.04,40.32 90.02,90.05 z"
         style="fill:#e6e6e6;fill-opacity:1;stroke:#e6e6e6;stroke-width:64.00481343;stroke-miterlimit:4;stroke-dasharray:none;stroke-opacity:1"
         id="path4705" /><path
         inkscape:connector-curvature="0"
         transform="matrix(0.083916,0,0,0.083916,301.17,457.18)"
         d="m 441.29,560.71 c 0.02,49.72 -40.29,90.04 -90.02,90.04 -49.72,0 -90.03,-40.32 -90.02,-90.04 -0.01,-49.73 40.3,-90.05 90.02,-90.05 49.73,0 90.04,40.32 90.02,90.05 z"
         style="fill:#e6e6e6;fill-opacity:1;stroke:#e6e6e6;stroke-width:64.00481343;stroke-miterlimit:4;stroke-dasharray:none;stroke-opacity:1"
         id="path4707" /><g
         id="g4709"
         style="stroke:#e6e6e6;stroke-width:10.74205585;stroke-miterlimit:4;stroke-dasharray:none;stroke-opacity:1;fill:none"><path
           inkscape:connector-curvature="0"
           style="fill:none;fill-rule:evenodd;stroke:#e6e6e6;stroke-width:10.74205585;stroke-miterlimit:4;stroke-dasharray:none;stroke-opacity:1"
           d="M 90.945405,205.02863 C 84.148035,220.22321 87.167654,225.78849 88.52,228.07 c 1.48,2.47 7.01,-17.38 9.83,-13.79 3.35,4.25 0.49,16.62 1.48,25.81 0.98,9.19 4.95,19.84 5.9,16.26 1.96,-7.42 4.42,-32.88 9.33,-25.81 4.92,7.07 9.62,22.82 11.8,16.97 1.85,-4.97 -5.9,-25.81 -2.46,-30.05 3.44,-4.24 8.85,13.08 10.81,8.13 1.74391,-4.3819 3.48782,-13.74774 -0.91447,-21.47959"
           id="path4711"
           transform="translate(239.74,384.07)" /><path
           inkscape:connector-curvature="0"
           id="path4713"
           style="fill:none;stroke:#e6e6e6;stroke-width:10.74205585;stroke-linecap:round;stroke-linejoin:round;stroke-miterlimit:4;stroke-dasharray:none;stroke-opacity:1"
           d="M 108.88,46.344 C 78.746,46.954 57.943,57.997 45.25,75.094 21.186,72.506 1.188,98.719 1.188,98.719 c -5e-4,0 18.891,9.451 32.062,1.531 -2.399,8.71 -3.562,18.11 -3.562,27.91 0,45.17 56.125,81.84 81.842,81.84 26.72,0 81.85,-36.67 81.85,-81.84 0,-9.8 -1.17,-19.2 -3.57,-27.91 13.17,7.92 32.03,-1.531 32.03,-1.531 0,0 -19.97,-26.205 -44.03,-23.625 -13.06,-17.595 -34.71,-28.75 -66.28,-28.75 -0.89,0 -1.78,-0.018 -2.65,0 z"
           transform="translate(239.74,384.07)" /><path
           inkscape:connector-curvature="0"
           id="path4715"
           style="fill:none;stroke:#e6e6e6;stroke-width:42.66953663;stroke-linecap:round;stroke-linejoin:round;stroke-miterlimit:4;stroke-dasharray:none;stroke-opacity:1"
           d="m 441.29,560.71 c 0.02,49.72 -40.29,90.04 -90.02,90.04 -49.72,0 -90.03,-40.32 -90.02,-90.04 -0.01,-49.73 40.3,-90.05 90.02,-90.05 49.73,0 90.04,40.32 90.02,90.05 z"
           transform="matrix(0.25175,0,0,0.25175,236.55,359.08)" /><path
           inkscape:connector-curvature="0"
           id="path4717"
           style="fill:none;stroke:#e6e6e6;stroke-width:42.66953663;stroke-linecap:round;stroke-linejoin:round;stroke-miterlimit:4;stroke-dasharray:none;stroke-opacity:1"
           d="m 441.29,560.71 c 0.02,49.72 -40.29,90.04 -90.02,90.04 -49.72,0 -90.03,-40.32 -90.02,-90.04 -0.01,-49.73 40.3,-90.05 90.02,-90.05 49.73,0 90.04,40.32 90.02,90.05 z"
           transform="matrix(0.25175,0,0,0.25175,289.28,359.08)" /><path
           inkscape:connector-curvature="0"
           style="fill:none;fill-rule:evenodd;stroke:#e6e6e6;stroke-width:10.74205585;stroke-miterlimit:4;stroke-dasharray:none;stroke-opacity:1"
           d="m 165.75344,62.781975 c 16.73712,-0.508687 33.58476,-2.918583 38.76609,-12.752678 7.13438,-13.5375 -8.7753,-48.2739015 -14.08789,-48.0312501 l 0,0 c -0.35417,0.016177 -0.66211,0.1875 -0.91211,0.53125 -4,5.5 5.5,29.0000001 -6,37.5000001 -11.1,8.2 -49.79976,-38.488672 -66.00976,5.111328 -0.1552,0.47565 -0.22914,0.96105 -0.22854,1.453115"
           id="path4719"
           transform="translate(239.74,384.07)" /><path
           inkscape:connector-curvature="0"
           style="fill:none;fill-rule:evenodd;stroke:#e6e6e6;stroke-width:10.74205585;stroke-miterlimit:4;stroke-dasharray:none;stroke-opacity:1"
           d="m 105.32812,46.570242 c -0.002,-0.484021 -0.0758,-0.96154 -0.22851,-1.429617 -16.210001,-43.6 -54.909766,3.088672 -66.009766,-5.111328 -11.5,-8.5 -2,-32.0000001 -6,-37.5000001 -0.25,-0.34375 -0.555984,-0.5150733 -0.910156,-0.53125 C 26.867102,1.7553955 10.955469,36.491797 18.089844,50.029297 23.318739,59.95367 40.429231,62.316908 57.313565,62.795508"
           id="path4721"
           transform="translate(239.74,384.07)" /></g><path
         inkscape:connector-curvature="0"
         d="m 367.87,564.87 c -2.29,3.97 -6.5,5.84 -9.4,4.16 -2.89,-1.67 -3.38,-6.25 -1.09,-10.22 2.29,-3.97 6.5,-5.84 9.4,-4.16 2.89,1.67 3.38,6.24 1.09,10.22 z"
         style="fill:#e6e6e6;fill-opacity:1;stroke:#e6e6e6;stroke-width:10.74205585;stroke-miterlimit:4;stroke-dasharray:none;stroke-opacity:1"
         id="path4723" /><path
         inkscape:connector-curvature="0"
         d="m 335.13,564.87 c 2.29,3.97 6.5,5.84 9.4,4.16 2.89,-1.67 3.38,-6.25 1.09,-10.22 -2.29,-3.97 -6.5,-5.84 -9.4,-4.16 -2.89,1.67 -3.38,6.24 -1.09,10.22 z"
         style="fill:#e6e6e6;fill-opacity:1;stroke:#e6e6e6;stroke-width:10.74205585;stroke-miterlimit:4;stroke-dasharray:none;stroke-opacity:1"
         id="path4725" /></g></g><g
     style="fill:#e6e6e6;fill-opacity:1"
     transform="matrix(1.0389453,0,0,1.0389453,-17.291154,162.2307)"
     id="g4419"><text
       xml:space="preserve"
       style="font-style:normal;font-variant:normal;font-weight:normal;font-stretch:normal;font-size:18.23392105px;line-height:125%;font-family:FontAwesome;-inkscape-font-specification:FontAwesome;letter-spacing:0px;word-spacing:0px;fill:#e6e6e6;fill-opacity:1;stroke:none;stroke-width:1px;stroke-linecap:butt;stroke-linejoin:miter;stroke-opacity:1"
       x="63.948029"
       y="-8.7337093"
       id="text4421"
       sodipodi:linespacing="125%"><tspan
         id="tspan4423"
         sodipodi:role="line"
         x="63.948029"
         y="-8.7337093"
         style="font-style:normal;font-variant:normal;font-weight:bold;font-stretch:normal;font-family:'Source Sans Pro';-inkscape-font-specification:'Source Sans Pro Bold';fill:#e6e6e6;fill-opacity:1">OPENSOURCE</tspan></text>
<text
       sodipodi:linespacing="125%"
       id="text4437"
       y="10.047914"
       x="64.618797"
       style="font-style:normal;font-variant:normal;font-weight:normal;font-stretch:normal;font-size:18.23392105px;line-height:125%;font-family:FontAwesome;-inkscape-font-specification:FontAwesome;letter-spacing:0px;word-spacing:0px;fill:#e6e6e6;fill-opacity:1;stroke:none;stroke-width:1px;stroke-linecap:butt;stroke-linejoin:miter;stroke-opacity:1"
       xml:space="preserve"><tspan
         style="font-style:normal;font-variant:normal;font-weight:bold;font-stretch:normal;font-family:'Source Sans Pro';-inkscape-font-specification:'Source Sans Pro Bold';fill:#e6e6e6;fill-opacity:1"
         y="10.047914"
         x="64.618797"
         sodipodi:role="line"
         id="tspan4439">BASH</tspan></text>
</g><g
     style="fill:#e6e6e6;fill-opacity:1"
     transform="matrix(0.686273,0,0,0.686273,8.8705878,160.10819)"
     id="g4431" /><g
     id="g4460"
     transform="matrix(1.0389453,0,0,1.0389453,-17.291154,101.39555)"
     style="fill:#4e4e4e;fill-opacity:1"><text
       sodipodi:linespacing="125%"
       id="text4462"
       y="-8.7337093"
       x="63.948029"
       style="font-style:normal;font-variant:normal;font-weight:normal;font-stretch:normal;font-size:18.23392105px;line-height:125%;font-family:FontAwesome;-inkscape-font-specification:FontAwesome;letter-spacing:0px;word-spacing:0px;fill:#4e4e4e;fill-opacity:1;stroke:none;stroke-width:1px;stroke-linecap:butt;stroke-linejoin:miter;stroke-opacity:1"
       xml:space="preserve"><tspan
         style="font-style:normal;font-variant:normal;font-weight:bold;font-stretch:normal;font-family:'Source Sans Pro';-inkscape-font-specification:'Source Sans Pro Bold';fill:#4e4e4e;fill-opacity:1"
         y="-8.7337093"
         x="63.948029"
         sodipodi:role="line"
         id="tspan4464">OPENSOURCE</tspan></text>
<text
       xml:space="preserve"
       style="font-style:normal;font-variant:normal;font-weight:normal;font-stretch:normal;font-size:18.23392105px;line-height:125%;font-family:FontAwesome;-inkscape-font-specification:FontAwesome;letter-spacing:0px;word-spacing:0px;fill:#4e4e4e;fill-opacity:1;stroke:none;stroke-width:1px;stroke-linecap:butt;stroke-linejoin:miter;stroke-opacity:1"
       x="64.618797"
       y="10.047914"
       id="text4466"
       sodipodi:linespacing="125%"><tspan
         id="tspan4468"
         sodipodi:role="line"
         x="64.618797"
         y="10.047914"
         style="font-style:normal;font-variant:normal;font-weight:bold;font-stretch:normal;font-family:'Source Sans Pro';-inkscape-font-specification:'Source Sans Pro Bold';fill:#4e4e4e;fill-opacity:1">BASH</tspan></text>
</g><g
     style="fill:#000000;fill-opacity:1"
     transform="matrix(1.0389453,0,0,1.0389453,-17.291154,33.800935)"
     id="g4470"><text
       xml:space="preserve"
       style="font-style:normal;font-variant:normal;font-weight:normal;font-stretch:normal;font-size:18.23392105px;line-height:125%;font-family:FontAwesome;-inkscape-font-specification:FontAwesome;letter-spacing:0px;word-spacing:0px;fill:#000000;fill-opacity:1;stroke:none;stroke-width:1px;stroke-linecap:butt;stroke-linejoin:miter;stroke-opacity:1"
       x="63.948029"
       y="-8.7337093"
       id="text4472"
       sodipodi:linespacing="125%"><tspan
         id="tspan4474"
         sodipodi:role="line"
         x="63.948029"
         y="-8.7337093"
         style="font-style:normal;font-variant:normal;font-weight:bold;font-stretch:normal;font-family:'Source Sans Pro';-inkscape-font-specification:'Source Sans Pro Bold';fill:#000000;fill-opacity:1">OPENSOURCE</tspan></text>
<text
       sodipodi:linespacing="125%"
       id="text4476"
       y="10.047914"
       x="64.618797"
       style="font-style:normal;font-variant:normal;font-weight:normal;font-stretch:normal;font-size:18.23392105px;line-height:125%;font-family:FontAwesome;-inkscape-font-specification:FontAwesome;letter-spacing:0px;word-spacing:0px;fill:#000000;fill-opacity:1;stroke:none;stroke-width:1px;stroke-linecap:butt;stroke-linejoin:miter;stroke-opacity:1"
       xml:space="preserve"><tspan
         style="font-style:normal;font-variant:normal;font-weight:bold;font-stretch:normal;font-family:'Source Sans Pro';-inkscape-font-specification:'Source Sans Pro Bold';fill:#000000;fill-opacity:1"
         y="10.047914"
         x="64.618797"
         sodipodi:role="line"
         id="tspan4478">BASH</tspan></text>
</g></svg>